<svg width="64" height="64" viewBox="0 0 64 64" fill="none" xmlns="http://www.w3.org/2000/svg">
<mask id="mask0_3_6" style="mask-type:alpha" maskUnits="userSpaceOnUse" x="0" y="0" width="64" height="64">
<rect width="64" height="64" fill="#1CB7FF"/>
</mask>
<g mask="url(#mask0_3_6)">
<rect width="64" height="64" fill="#1CB7FF"/>
<mask id="path-3-outside-1_3_6" maskUnits="userSpaceOnUse" x="2.80367" y="10.6144" width="37.6541" height="41.2309" fill="black">
<rect fill="white" x="2.80367" y="10.6144" width="37.6541" height="41.2309"/>
<path d="M6.63291 21.3423L11.2134 16.6737C13.1286 19.0712 15.0636 21.4313 17.0184 23.754C18.5621 25.5059 20.2967 27.05 22.2223 28.3863C24.7736 26.3613 27.4334 24.4783 30.2018 22.7376L34.9271 27.8777C32.615 29.0069 30.3473 30.2258 28.1241 31.5345C25.9008 32.8432 23.8142 34.3383 21.8643 36.0198C21.4566 36.4144 21.0618 36.8195 20.6799 37.2351C20.2979 37.6506 19.9556 38.1093 19.6531 38.6111C19.3714 39.0872 19.2718 39.6155 19.3541 40.1961C19.4642 40.5855 19.6826 40.8814 20.0094 41.0839C20.3594 41.284 20.7269 41.4235 21.1118 41.5023C21.4943 41.5578 21.8874 41.6005 22.2908 41.6303C25.9338 41.7798 29.3201 40.907 32.4499 39.0119L33.6468 45.2512C30.1431 46.4775 26.5502 47.1709 22.8679 47.3317C21.7183 47.3774 20.572 47.3403 19.4291 47.2204C18.3095 47.0981 17.2108 46.8324 16.1329 46.4233C15.0549 46.0141 14.1528 45.3634 13.4264 44.4711C12.721 43.5531 12.3326 42.5088 12.2612 41.3381C12.2134 40.4007 12.3709 39.5131 12.7337 38.6754C13.1175 37.8121 13.5783 37.0116 14.1161 36.274C14.6539 35.5364 15.2303 34.8302 15.8451 34.1555C16.4833 33.4784 17.146 32.8106 17.8332 32.1522C16.4279 31.0694 15.0634 29.9237 13.7396 28.7149C11.2438 26.3998 8.8749 23.9423 6.63291 21.3423Z"/>
</mask>
<path d="M6.63291 21.3423L11.2134 16.6737C13.1286 19.0712 15.0636 21.4313 17.0184 23.754C18.5621 25.5059 20.2967 27.05 22.2223 28.3863C24.7736 26.3613 27.4334 24.4783 30.2018 22.7376L34.9271 27.8777C32.615 29.0069 30.3473 30.2258 28.1241 31.5345C25.9008 32.8432 23.8142 34.3383 21.8643 36.0198C21.4566 36.4144 21.0618 36.8195 20.6799 37.2351C20.2979 37.6506 19.9556 38.1093 19.6531 38.6111C19.3714 39.0872 19.2718 39.6155 19.3541 40.1961C19.4642 40.5855 19.6826 40.8814 20.0094 41.0839C20.3594 41.284 20.7269 41.4235 21.1118 41.5023C21.4943 41.5578 21.8874 41.6005 22.2908 41.6303C25.9338 41.7798 29.3201 40.907 32.4499 39.0119L33.6468 45.2512C30.1431 46.4775 26.5502 47.1709 22.8679 47.3317C21.7183 47.3774 20.572 47.3403 19.4291 47.2204C18.3095 47.0981 17.2108 46.8324 16.1329 46.4233C15.0549 46.0141 14.1528 45.3634 13.4264 44.4711C12.721 43.5531 12.3326 42.5088 12.2612 41.3381C12.2134 40.4007 12.3709 39.5131 12.7337 38.6754C13.1175 37.8121 13.5783 37.0116 14.1161 36.274C14.6539 35.5364 15.2303 34.8302 15.8451 34.1555C16.4833 33.4784 17.146 32.8106 17.8332 32.1522C16.4279 31.0694 15.0634 29.9237 13.7396 28.7149C11.2438 26.3998 8.8749 23.9423 6.63291 21.3423Z" fill="#FF3A3A"/>
<path d="M6.63291 21.3423L5.20528 19.9417L3.91672 21.255L5.11828 22.6484L6.63291 21.3423ZM11.2134 16.6737L12.776 15.4254L11.3668 13.6615L9.78574 15.2731L11.2134 16.6737ZM17.0184 23.754L15.4882 25.0418L15.5028 25.0592L15.5179 25.0762L17.0184 23.754ZM22.2223 28.3863L21.0821 30.0294L22.3024 30.8762L23.4657 29.9528L22.2223 28.3863ZM30.2018 22.7376L31.6742 21.384L30.5471 20.1579L29.1372 21.0445L30.2018 22.7376ZM34.9271 27.8777L35.8048 29.6748L38.2141 28.4981L36.3995 26.5241L34.9271 27.8777ZM21.8643 36.0198L20.5582 34.5051L20.5146 34.5427L20.4732 34.5828L21.8643 36.0198ZM19.6531 38.6111L17.9403 37.5783L17.936 37.5856L17.9317 37.5929L19.6531 38.6111ZM19.3541 40.1961L17.3739 40.4769L17.3929 40.6105L17.4296 40.7403L19.3541 40.1961ZM20.0094 41.0839L18.9558 42.7839L18.9859 42.8025L19.0167 42.8201L20.0094 41.0839ZM21.1118 41.5023L20.7105 43.4616L20.7673 43.4733L20.8246 43.4816L21.1118 41.5023ZM22.2908 41.6303L22.1434 43.6249L22.1761 43.6273L22.2088 43.6286L22.2908 41.6303ZM32.4499 39.0119L34.4141 38.6351L33.8726 35.8123L31.414 37.3011L32.4499 39.0119ZM33.6468 45.2512L34.3075 47.1389L35.9361 46.5689L35.611 44.8744L33.6468 45.2512ZM22.8679 47.3317L22.9474 49.3301L22.9552 49.3298L22.8679 47.3317ZM19.4291 47.2204L19.212 49.2086L19.2205 49.2095L19.4291 47.2204ZM13.4264 44.4711L11.8405 45.6897L11.8576 45.7119L11.8753 45.7337L13.4264 44.4711ZM12.2612 41.3381L10.2638 41.4399L10.2643 41.4499L10.2649 41.4598L12.2612 41.3381ZM12.7337 38.6754L10.9061 37.8631L10.9023 37.8718L10.8985 37.8806L12.7337 38.6754ZM15.8451 34.1555L14.3897 32.7837L14.3782 32.796L14.3669 32.8084L15.8451 34.1555ZM17.8332 32.1522L19.2169 33.5962L20.896 31.9872L19.0539 30.5679L17.8332 32.1522ZM13.7396 28.7149L12.3795 30.1812L12.3853 30.1865L12.391 30.1918L13.7396 28.7149ZM6.63291 21.3423L8.06054 22.743L12.641 18.0744L11.2134 16.6737L9.78574 15.2731L5.20528 19.9417L6.63291 21.3423ZM11.2134 16.6737L9.65078 17.922C11.5765 20.3326 13.5223 22.7059 15.4882 25.0418L17.0184 23.754L18.5486 22.4662C16.6049 20.1566 14.6807 17.8097 12.776 15.4254L11.2134 16.6737ZM17.0184 23.754L15.5179 25.0762C17.1686 26.9497 19.0244 28.6014 21.0821 30.0294L22.2223 28.3863L23.3626 26.7432C21.5691 25.4986 19.9555 24.0621 18.519 22.4318L17.0184 23.754ZM22.2223 28.3863L23.4657 29.9528C25.9595 27.9734 28.5596 26.1327 31.2665 24.4307L30.2018 22.7376L29.1372 21.0445C26.3072 22.824 23.5876 24.7491 20.9789 26.8198L22.2223 28.3863ZM30.2018 22.7376L28.7295 24.0911L33.4547 29.2312L34.9271 27.8777L36.3995 26.5241L31.6742 21.384L30.2018 22.7376ZM34.9271 27.8777L34.0494 26.0805C31.6906 27.2326 29.3773 28.476 27.1095 29.8109L28.1241 31.5345L29.1386 33.2581C31.3174 31.9756 33.5394 30.7812 35.8048 29.6748L34.9271 27.8777ZM28.1241 31.5345L27.1095 29.8109C24.7832 31.1803 22.599 32.7452 20.5582 34.5051L21.8643 36.0198L23.1704 37.5344C25.0294 35.9313 27.0184 34.5061 29.1386 33.2581L28.1241 31.5345ZM21.8643 36.0198L20.4732 34.5828C20.0377 35.0043 19.6158 35.4373 19.2073 35.8817L20.6799 37.2351L22.1524 38.5885C22.5079 38.2017 22.8755 37.8244 23.2553 37.4567L21.8643 36.0198ZM20.6799 37.2351L19.2073 35.8817C18.7314 36.3995 18.3094 36.9663 17.9403 37.5783L19.6531 38.6111L21.3658 39.6439C21.6018 39.2524 21.8644 38.9018 22.1524 38.5885L20.6799 37.2351ZM19.6531 38.6111L17.9317 37.5929C17.4042 38.4846 17.232 39.4756 17.3739 40.4769L19.3541 40.1961L21.3343 39.9153C21.3117 39.7555 21.3387 39.6898 21.3745 39.6293L19.6531 38.6111ZM19.3541 40.1961L17.4296 40.7403C17.6677 41.5824 18.1808 42.3035 18.9558 42.7839L20.0094 41.0839L21.0629 39.3839C21.1057 39.4104 21.1611 39.4566 21.2097 39.5224C21.2571 39.5867 21.2747 39.6381 21.2787 39.652L19.3541 40.1961ZM20.0094 41.0839L19.0167 42.8201C19.5459 43.1227 20.1125 43.3392 20.7105 43.4616L21.1118 41.5023L21.5131 39.543C21.3414 39.5078 21.1729 39.4453 21.002 39.3476L20.0094 41.0839ZM21.1118 41.5023L20.8246 43.4816C21.2556 43.5441 21.6953 43.5918 22.1434 43.6249L22.2908 41.6303L22.4383 39.6358C22.0794 39.6092 21.7331 39.5715 21.399 39.523L21.1118 41.5023ZM22.2908 41.6303L22.2088 43.6286C26.2461 43.7943 30.021 42.8207 33.4858 40.7227L32.4499 39.0119L31.414 37.3011C28.6192 38.9933 25.6215 39.7653 22.3729 39.632L22.2908 41.6303ZM32.4499 39.0119L30.4857 39.3887L31.6826 45.628L33.6468 45.2512L35.611 44.8744L34.4141 38.6351L32.4499 39.0119ZM33.6468 45.2512L32.9861 43.3635C29.6658 44.5255 26.266 45.1814 22.7807 45.3336L22.8679 47.3317L22.9552 49.3298C26.8343 49.1604 30.6204 48.4294 34.3075 47.1389L33.6468 45.2512ZM22.8679 47.3317L22.7885 45.3332C21.7348 45.3751 20.6848 45.3411 19.6378 45.2313L19.4291 47.2204L19.2205 49.2095C20.4591 49.3394 21.7017 49.3796 22.9474 49.3301L22.8679 47.3317ZM19.4291 47.2204L19.6462 45.2322C18.6992 45.1288 17.7658 44.9039 16.8426 44.5535L16.1329 46.4233L15.4231 48.2931C16.6558 48.761 17.9199 49.0675 19.212 49.2086L19.4291 47.2204ZM16.1329 46.4233L16.8426 44.5535C16.0929 44.2689 15.4812 43.8273 14.9775 43.2085L13.4264 44.4711L11.8753 45.7337C12.8243 46.8995 14.0169 47.7594 15.4231 48.2931L16.1329 46.4233ZM13.4264 44.4711L15.0123 43.2525C14.5534 42.6553 14.3049 41.9942 14.2575 41.2164L12.2612 41.3381L10.2649 41.4598C10.3603 43.0233 10.8886 44.4508 11.8405 45.6897L13.4264 44.4711ZM12.2612 41.3381L14.2586 41.2363C14.226 40.5973 14.332 40.0174 14.569 39.4703L12.7337 38.6754L10.8985 37.8806C10.4098 39.0088 10.2008 40.2041 10.2638 41.4399L12.2612 41.3381ZM12.7337 38.6754L14.5613 39.4878C14.8897 38.7491 15.2804 38.0718 15.7321 37.4523L14.1161 36.274L12.5001 35.0957C11.8761 35.9514 11.3453 36.8751 10.9061 37.8631L12.7337 38.6754ZM14.1161 36.274L15.7321 37.4523C16.2271 36.7735 16.7575 36.1236 17.3234 35.5026L15.8451 34.1555L14.3669 32.8084C13.7031 33.5368 13.0807 34.2994 12.5001 35.0957L14.1161 36.274ZM15.8451 34.1555L17.3006 35.5273C17.9149 34.8755 18.5537 34.2317 19.2169 33.5962L17.8332 32.1522L16.4494 30.7081C15.7383 31.3895 15.0517 32.0814 14.3897 32.7837L15.8451 34.1555ZM17.8332 32.1522L19.0539 30.5679C17.6932 29.5195 16.3713 28.4096 15.0882 27.238L13.7396 28.7149L12.391 30.1918C13.7555 31.4377 15.1627 32.6193 16.6125 33.7364L17.8332 32.1522ZM13.7396 28.7149L15.0998 27.2486C12.6588 24.9844 10.3414 22.5804 8.14754 20.0362L6.63291 21.3423L5.11828 22.6484C7.40834 25.3041 9.82879 27.8152 12.3795 30.1812L13.7396 28.7149Z" fill="#FFF8A6" mask="url(#path-3-outside-1_3_6)"/>
<mask id="path-5-outside-2_3_6" maskUnits="userSpaceOnUse" x="38.1391" y="16.8194" width="21.9145" height="34.5539" fill="black">
<rect fill="white" x="38.1391" y="16.8194" width="21.9145" height="34.5539"/>
<path d="M46.0563 36.8313L47.6238 25.4528L48.9564 19.6215L56.5887 21.6995L54.7813 27.4015L50.3982 38.0134L46.0563 36.8313ZM42.5003 42.1301C42.7959 41.0446 43.4266 40.2447 44.3925 39.7304C45.3872 39.1996 46.4725 39.0943 47.6484 39.4145C48.8244 39.7346 49.6952 40.3725 50.2609 41.3281C50.8554 42.2673 51.0049 43.2796 50.7093 44.3651C50.4076 45.4732 49.7738 46.2844 48.8079 46.7987C47.8482 47.2904 46.769 47.3731 45.5705 47.0468C44.3719 46.7205 43.4836 46.1021 42.9056 45.1918C42.3337 44.2588 42.1986 43.2382 42.5003 42.1301Z"/>
</mask>
<path d="M46.0563 36.8313L47.6238 25.4528L48.9564 19.6215L56.5887 21.6995L54.7813 27.4015L50.3982 38.0134L46.0563 36.8313ZM42.5003 42.1301C42.7959 41.0446 43.4266 40.2447 44.3925 39.7304C45.3872 39.1996 46.4725 39.0943 47.6484 39.4145C48.8244 39.7346 49.6952 40.3725 50.2609 41.3281C50.8554 42.2673 51.0049 43.2796 50.7093 44.3651C50.4076 45.4732 49.7738 46.2844 48.8079 46.7987C47.8482 47.2904 46.769 47.3731 45.5705 47.0468C44.3719 46.7205 43.4836 46.1021 42.9056 45.1918C42.3337 44.2588 42.1986 43.2382 42.5003 42.1301Z" fill="#FF3A3A"/>
<path d="M46.0563 36.8313L44.075 36.5583L43.8351 38.2993L45.5309 38.761L46.0563 36.8313ZM47.6238 25.4528L45.6741 25.0073L45.6545 25.0929L45.6425 25.1799L47.6238 25.4528ZM48.9564 19.6215L49.4818 17.6917L47.4709 17.1443L47.0066 19.176L48.9564 19.6215ZM56.5887 21.6995L58.4952 22.3038L59.125 20.3172L57.1141 19.7697L56.5887 21.6995ZM54.7813 27.4015L56.6298 28.165L56.6621 28.0866L56.6878 28.0058L54.7813 27.4015ZM50.3982 38.0134L49.8728 39.9432L51.5738 40.4063L52.2467 38.7769L50.3982 38.0134ZM44.3925 39.7304L45.3325 41.4957L45.3341 41.4949L44.3925 39.7304ZM50.2609 41.3281L48.5399 42.347L48.5551 42.3726L48.571 42.3978L50.2609 41.3281ZM48.8079 46.7987L49.7199 48.5787L49.734 48.5715L49.7479 48.5641L48.8079 46.7987ZM42.9056 45.1918L41.2004 46.2369L41.2087 46.2504L41.2172 46.2638L42.9056 45.1918ZM46.0563 36.8313L48.0375 37.1042L49.6051 25.7258L47.6238 25.4528L45.6425 25.1799L44.075 36.5583L46.0563 36.8313ZM47.6238 25.4528L49.5736 25.8984L50.9061 20.0671L48.9564 19.6215L47.0066 19.176L45.6741 25.0073L47.6238 25.4528ZM48.9564 19.6215L48.431 21.5513L56.0633 23.6292L56.5887 21.6995L57.1141 19.7697L49.4818 17.6917L48.9564 19.6215ZM56.5887 21.6995L54.6822 21.0951L52.8747 26.7971L54.7813 27.4015L56.6878 28.0058L58.4952 22.3038L56.5887 21.6995ZM54.7813 27.4015L52.9327 26.638L48.5497 37.2499L50.3982 38.0134L52.2467 38.7769L56.6298 28.165L54.7813 27.4015ZM50.3982 38.0134L50.9236 36.0836L46.5816 34.9015L46.0563 36.8313L45.5309 38.761L49.8728 39.9432L50.3982 38.0134ZM42.5003 42.1301L44.4301 42.6555C44.5853 42.0853 44.8685 41.7428 45.3325 41.4957L44.3925 39.7304L43.4525 37.9651C41.9846 38.7467 41.0064 40.004 40.5706 41.6047L42.5003 42.1301ZM44.3925 39.7304L45.3341 41.4949C45.8404 41.2247 46.3957 41.1462 47.123 41.3442L47.6484 39.4145L48.1738 37.4847C46.5493 37.0424 44.934 37.1745 43.4509 37.9659L44.3925 39.7304ZM47.6484 39.4145L47.123 41.3442C47.8507 41.5423 48.2661 41.8845 48.5399 42.347L50.2609 41.3281L51.982 40.3093C51.1243 38.8606 49.7981 37.9269 48.1738 37.4847L47.6484 39.4145ZM50.2609 41.3281L48.571 42.3978C48.861 42.856 48.9296 43.2885 48.7796 43.8397L50.7093 44.3651L52.6391 44.8905C53.0801 43.2707 52.8497 41.6786 51.9508 40.2584L50.2609 41.3281ZM50.7093 44.3651L48.7796 43.8397C48.6147 44.4453 48.3207 44.7923 47.8679 45.0334L48.8079 46.7987L49.7479 48.5641C51.227 47.7765 52.2006 46.5011 52.6391 44.8905L50.7093 44.3651ZM48.8079 46.7987L47.896 45.0187C47.4471 45.2487 46.8915 45.3337 46.0959 45.1171L45.5705 47.0468L45.0451 48.9766C46.6466 49.4126 48.2493 49.3321 49.7199 48.5787L48.8079 46.7987ZM45.5705 47.0468L46.0959 45.1171C45.3002 44.9004 44.8644 44.5456 44.594 44.1197L42.9056 45.1918L41.2172 46.2638C42.1029 47.6587 43.4436 48.5406 45.0451 48.9766L45.5705 47.0468ZM42.9056 45.1918L44.6108 44.1466C44.3427 43.7093 44.2652 43.2611 44.4301 42.6555L42.5003 42.1301L40.5706 41.6047C40.1321 43.2153 40.3247 44.8083 41.2004 46.2369L42.9056 45.1918Z" fill="#FFF8A6" mask="url(#path-5-outside-2_3_6)"/>
</g>
</svg>
